<svg xmlns="http://www.w3.org/2000/svg" fill="none" viewBox="0 0 197 157" height="157" width="197">
<path fill="black" d="M158.203 52.284C157.879 52.155 157.584 52.0565 157.345 51.9862C157.012 51.8884 156.649 52.0073 156.455 52.295C156.187 52.6915 155.672 53.2767 154.761 53.8C149.929 55.8963 143.681 56.2551 140.072 56.1084C139.735 56.0947 139.711 55.6045 140.041 55.5327C146.821 54.0579 152.692 51.4535 157.446 47.4311C164.331 41.6051 165.792 35.1545 165.792 28.4452C165.792 12.8791 148.299 0 118.392 0C105.931 0 95.2389 4.30353 86.8251 9.06201C84.6344 10.301 83.8065 10.4139 81.3166 8.92462C75.8261 5.64062 67.8196 2.51092 60.6522 2.51092C39.9327 2.51092 28.7716 17.2945 30.2375 31.7035C31.4097 43.2266 36.5108 50.4325 48.2468 55.7904C48.6771 55.9868 48.8864 56.2881 48.1428 56.2911C45.5294 56.3013 39.1525 55.5177 33.3091 51.1835C32.1864 49.9609 32.7238 49.1832 32.2294 49.1191C31.5801 49.0348 31.1923 49.0195 30.7875 49.0421C30.7833 49.038 30.7788 49.0344 30.7745 49.0303C30.7196 49.0351 30.6628 49.0465 30.6076 49.0524C30.4721 49.0634 30.3339 49.0771 30.1766 49.0953C30.1381 49.0998 30.1052 49.1171 30.0675 49.1237C29.2346 49.2627 28.3723 49.5235 27.4985 49.9736C18.8061 54.4516 14.7374 65.1898 17.9381 74.8126C20.1042 81.3246 24.069 83.5723 25.862 85.1527C29.1828 87.4756 34.1349 89.9534 40.6934 90.597C40.997 90.6268 41.0237 91.0576 40.7238 91.1127C37.601 91.687 30.7367 92.3711 24.0855 89.186C22.0546 88.0902 22.5984 87.3605 22.0042 87.4014C21.2478 87.4534 20.7372 87.5052 20.2012 87.6298C17.8704 88.0634 15.0255 89.1659 11.7943 91.7444C1.42937 100.015 -1.71834 111.158 0.848314 123.17C5.26195 143.826 23.1027 153.555 42.3368 155.478C56.4606 156.89 72.3498 151.947 80.199 143.99C85.0224 138.229 93.4452 131.311 101.413 131.587C101.413 131.587 93.6112 133.096 88.6069 142.443C91.3287 142.151 93.3585 143.932 94.5793 144.778C104.345 151.545 119.904 156.239 132.905 156.239C171.393 156.239 196.851 135.512 196.851 101.624C196.851 75.6218 170.983 56.2161 158.203 52.284ZM85.0904 108.062C85.0904 55.6677 82.3309 52.7923 75.5853 52.7923C82.3309 52.7923 85.0904 48.1229 85.0904 39.9224C85.0904 48.1229 87.8499 52.7923 94.5956 52.7923C87.8499 52.7923 85.0904 56.9456 85.0904 108.062ZM106.998 106.659C113.33 106.659 115.921 94.8326 115.921 51.8425C115.921 98.0289 118.511 106.659 124.844 106.659H106.998Z"></path>
</svg>
